<svg xmlns="http://www.w3.org/2000/svg" viewBox="0 0 120 120">
  <!-- clipboard -->
  <rect x="38" y="28" width="46" height="56" rx="3" fill="none" stroke="#27337a" stroke-width="4"/>
  <rect x="50" y="23" width="22" height="11" rx="1.5" fill="#cfe3f5"/>
  <circle cx="61" cy="25.5" r="2.6" fill="#fff"/>
  <!-- checklist rows: navy boxes, coral checks, navy + mauve lines -->
  <g fill="none" stroke-linecap="round">
    <g stroke="#27337a" stroke-width="2.6">
      <rect x="44.5" y="39.5" width="10.5" height="10.5" rx="1"/>
      <rect x="44.5" y="54.5" width="10.5" height="10.5" rx="1"/>
      <rect x="44.5" y="69.5" width="10.5" height="10.5" rx="1"/>
      <line x1="60" y1="42.5" x2="78" y2="42.5"/>
      <line x1="60" y1="57.5" x2="78" y2="57.5"/>
      <line x1="60" y1="72.5" x2="78" y2="72.5"/>
    </g>
    <g stroke="#e8967a" stroke-width="3">
      <path d="M46.5 44.5 l3 3 5.5 -6.5"/>
      <path d="M46.5 59.5 l3 3 5.5 -6.5"/>
      <path d="M46.5 74.5 l3 3 5.5 -6.5"/>
    </g>
    <g stroke="#a59aa8" stroke-width="2.4">
      <line x1="60" y1="48" x2="74" y2="48"/>
      <line x1="60" y1="63" x2="74" y2="63"/>
      <line x1="60" y1="78" x2="74" y2="78"/>
    </g>
  </g>
  <!-- speech bubble (mauve outline, navy + mauve lines) -->
  <circle cx="94" cy="43" r="14" fill="#fff" stroke="#a59aa8" stroke-width="3"/>
  <path d="M85 52 l-4 9 9 -4.5" fill="#fff" stroke="#a59aa8" stroke-width="3" stroke-linejoin="round"/>
  <line x1="87" y1="40" x2="101" y2="40" stroke="#27337a" stroke-width="2.6" stroke-linecap="round"/>
  <line x1="87" y1="46.5" x2="98" y2="46.5" stroke="#a59aa8" stroke-width="2.4" stroke-linecap="round"/>
  <!-- two people -->
  <g fill="none" stroke="#27337a" stroke-width="4.5" stroke-linecap="round">
    <circle cx="26" cy="75" r="9.5"/>
    <path d="M12 103 q0 -14.5 14 -14.5 q14 0 14 14.5"/>
    <circle cx="96" cy="75" r="9.5"/>
    <path d="M82 103 q0 -14.5 14 -14.5 q14 0 14 14.5"/>
    <line x1="43" y1="89" x2="79" y2="89"/>
  </g>
  <!-- light blue table mound -->
  <path d="M40 104 q21 -13 42 0 z" fill="#cfe3f5"/>
</svg>
