<svg xmlns="http://www.w3.org/2000/svg" viewBox="0 0 120 120">
  <!-- clipboard -->
  <rect x="38" y="28" width="46" height="56" rx="4" fill="none" stroke="#27337a" stroke-width="4.5"/>
  <rect x="52" y="22" width="18" height="12" rx="2.5" fill="#cfa87e"/>
  <circle cx="61" cy="25" r="2.6" fill="#fff"/>
  <!-- checklist rows -->
  <g stroke="#cfa87e" fill="none" stroke-width="2.4" stroke-linecap="round">
    <rect x="44.5" y="39.5" width="10.5" height="10.5" rx="1.8"/>
    <path d="M47 45 l2.6 2.6 4.6 -5.6"/>
    <line x1="60" y1="42" x2="78" y2="42"/>
    <line x1="60" y1="47.5" x2="75" y2="47.5"/>
    <rect x="44.5" y="54.5" width="10.5" height="10.5" rx="1.8"/>
    <path d="M47 60 l2.6 2.6 4.6 -5.6"/>
    <line x1="60" y1="57" x2="78" y2="57"/>
    <line x1="60" y1="62.5" x2="75" y2="62.5"/>
    <rect x="44.5" y="69.5" width="10.5" height="10.5" rx="1.8"/>
    <path d="M47 75 l2.6 2.6 4.6 -5.6"/>
    <line x1="60" y1="72" x2="78" y2="72"/>
    <line x1="60" y1="77.5" x2="75" y2="77.5"/>
  </g>
  <!-- speech bubble -->
  <circle cx="93" cy="42" r="14" fill="#fff" stroke="#cfa87e" stroke-width="3.4"/>
  <path d="M84 51 l-3 8 8 -4" fill="#fff" stroke="#cfa87e" stroke-width="3.4" stroke-linejoin="round"/>
  <g stroke="#cfa87e" stroke-width="2.6" stroke-linecap="round">
    <line x1="86.5" y1="39" x2="99.5" y2="39"/>
    <line x1="86.5" y1="45" x2="97" y2="45"/>
  </g>
  <!-- two people -->
  <g fill="none" stroke="#27337a" stroke-width="4.5" stroke-linecap="round">
    <circle cx="27" cy="76" r="9"/>
    <path d="M13 103 q0 -14 14 -14 q14 0 14 14"/>
    <circle cx="95" cy="76" r="9"/>
    <path d="M81 103 q0 -14 14 -14 q14 0 14 14"/>
    <line x1="44" y1="89" x2="78" y2="89"/>
  </g>
  <!-- table mound -->
  <path d="M42 103 q19 -12 38 0 z" fill="#cfa87e"/>
</svg>
