<svg xmlns="http://www.w3.org/2000/svg" viewBox="0 0 120 120">
  <!-- clipboard with checklist only -->
  <rect x="32" y="20" width="56" height="86" rx="3.5" fill="none" stroke="#27337a" stroke-width="4.5"/>
  <rect x="46" y="13" width="28" height="13" rx="2" fill="#cfe3f5"/>
  <circle cx="60" cy="16.5" r="3" fill="#fff"/>
  <g fill="none" stroke-linecap="round">
    <g stroke="#27337a" stroke-width="3">
      <rect x="40" y="35" width="13" height="13" rx="1.2"/>
      <rect x="40" y="59" width="13" height="13" rx="1.2"/>
      <rect x="40" y="83" width="13" height="13" rx="1.2"/>
      <line x1="59" y1="38.5" x2="80" y2="38.5"/>
      <line x1="59" y1="62.5" x2="80" y2="62.5"/>
      <line x1="59" y1="86.5" x2="80" y2="86.5"/>
    </g>
    <g stroke="#e8967a" stroke-width="3.8">
      <path d="M43 42 l4 4.5 9.5 -12"/>
      <path d="M43 66 l4 4.5 9.5 -12"/>
      <path d="M43 90 l4 4.5 9.5 -12"/>
    </g>
    <g stroke="#a59aa8" stroke-width="2.8">
      <line x1="59" y1="45.5" x2="75" y2="45.5"/>
      <line x1="59" y1="69.5" x2="75" y2="69.5"/>
      <line x1="59" y1="93.5" x2="75" y2="93.5"/>
    </g>
  </g>
</svg>
