<svg xmlns="http://www.w3.org/2000/svg" viewBox="0 0 120 120">
  <!-- 3D-style stopwatch: gray-lavender body, white face, navy hand/ticks -->
  <rect x="50" y="10" width="20" height="9" rx="4" fill="#b0acc9"/>
  <rect x="54" y="16" width="12" height="12" fill="#a7a3c3"/>
  <rect x="21" y="27" width="16" height="9" rx="4.5" fill="#b0acc9" transform="rotate(35 29 31.5)"/>
  <rect x="83" y="27" width="16" height="9" rx="4.5" fill="#b0acc9" transform="rotate(-35 91 31.5)"/>
  <circle cx="60" cy="69" r="42" fill="#a7a3c3"/>
  <circle cx="60" cy="69" r="33" fill="#f7f6f3"/>
  <g stroke="#2e3272" stroke-width="4.5" stroke-linecap="round">
    <line x1="60" y1="42" x2="60" y2="51"/>
    <line x1="60" y1="87" x2="60" y2="96"/>
    <line x1="33" y1="69" x2="42" y2="69"/>
    <line x1="78" y1="69" x2="87" y2="69"/>
  </g>
  <g stroke="#b9b6d4" stroke-width="2.5" stroke-linecap="round">
    <line x1="80.8" y1="57" x2="86" y2="54"/>
    <line x1="72" y1="48.2" x2="75" y2="43"/>
    <line x1="48" y1="48.2" x2="45" y2="43"/>
    <line x1="39.2" y1="57" x2="34" y2="54"/>
    <line x1="39.2" y1="81" x2="34" y2="84"/>
    <line x1="48" y1="89.8" x2="45" y2="95"/>
    <line x1="72" y1="89.8" x2="75" y2="95"/>
    <line x1="80.8" y1="81" x2="86" y2="84"/>
  </g>
  <path d="M60 69 L76 50" stroke="#2e3272" stroke-width="5.5" stroke-linecap="round" fill="none"/>
  <circle cx="60" cy="69" r="6.5" fill="#2e3272"/>
</svg>
