<svg xmlns="http://www.w3.org/2000/svg" viewBox="0 0 120 120">
  <!-- 3D-style stopwatch, periwinkle + lavender -->
  <circle cx="60" cy="16" r="7" fill="none" stroke="#b9bce8" stroke-width="4.5"/>
  <rect x="52" y="20" width="16" height="9" rx="3" fill="#b9bce8"/>
  <rect x="20" y="28" width="17" height="9" rx="4.5" fill="#b9bce8" transform="rotate(35 28 32)"/>
  <rect x="83" y="28" width="17" height="9" rx="4.5" fill="#b9bce8" transform="rotate(-35 92 32)"/>
  <circle cx="60" cy="69" r="42" fill="#5c63a8"/>
  <circle cx="60" cy="69" r="33" fill="#fdfdfe"/>
  <g stroke="#a8ace0" stroke-width="4" stroke-linecap="round">
    <line x1="60" y1="42" x2="60" y2="50"/>
    <line x1="60" y1="88" x2="60" y2="96"/>
    <line x1="33" y1="69" x2="41" y2="69"/>
    <line x1="79" y1="69" x2="87" y2="69"/>
  </g>
  <g stroke="#cfe0f5" stroke-width="3" stroke-linecap="round">
    <line x1="41.9" y1="50.9" x2="46.9" y2="55.9"/>
    <line x1="78.1" y1="50.9" x2="73.1" y2="55.9"/>
    <line x1="41.9" y1="87.1" x2="46.9" y2="82.1"/>
    <line x1="78.1" y1="87.1" x2="73.1" y2="82.1"/>
  </g>
  <path d="M60 69 L76 49" stroke="#3d4290" stroke-width="5.5" stroke-linecap="round" fill="none"/>
  <circle cx="60" cy="69" r="6.5" fill="#4a4f9b"/>
</svg>
